<svg width="32" height="32" viewBox="0 0 32 32" fill="none" xmlns="http://www.w3.org/2000/svg">
<path d="M29.4149 9.08042C29.0929 7.8679 28.1441 6.91296 26.9394 6.58888C24.7559 6 16 6 16 6C16 6 7.2442 6 5.06058 6.58888C3.8559 6.91301 2.90711 7.8679 2.58509 9.08042C2 11.2782 2 15.8636 2 15.8636C2 15.8636 2 20.4491 2.58509 22.6468C2.90711 23.8594 3.8559 24.7745 5.06058 25.0986C7.2442 25.6875 16 25.6875 16 25.6875C16 25.6875 24.7558 25.6875 26.9394 25.0986C28.1441 24.7745 29.0929 23.8594 29.4149 22.6468C30 20.4491 30 15.8636 30 15.8636C30 15.8636 30 11.2782 29.4149 9.08042ZM13.1363 20.0269V11.7004L20.4545 15.8637L13.1363 20.0269Z" fill="white"/>
</svg>
